<?xml version="1.0" encoding="UTF-8" standalone="no"?>
<svg
   xmlns:dc="http://purl.org/dc/elements/1.1/"
   xmlns:cc="http://creativecommons.org/ns#"
   xmlns:rdf="http://www.w3.org/1999/02/22-rdf-syntax-ns#"
   xmlns:svg="http://www.w3.org/2000/svg"
   xmlns="http://www.w3.org/2000/svg"
   xmlns:sodipodi="http://sodipodi.sourceforge.net/DTD/sodipodi-0.dtd"
   xmlns:inkscape="http://www.inkscape.org/namespaces/inkscape"
   inkscape:version="0.92.5 (2060ec1f9f, 2020-04-08)"
   height="128"
   width="128"
   sodipodi:docname="instagram.svg"
   xml:space="preserve"
   viewBox="0 0 128 128"
   y="0px"
   x="0px"
   id="Layer_1"
   version="1.1"><metadata
   id="metadata180"><rdf:RDF><cc:Work
       rdf:about=""><dc:format>image/svg+xml</dc:format><dc:type
         rdf:resource="http://purl.org/dc/dcmitype/StillImage" /><dc:title></dc:title></cc:Work></rdf:RDF></metadata><defs
   id="defs178" /><sodipodi:namedview
   inkscape:current-layer="Layer_1"
   inkscape:window-maximized="1"
   inkscape:window-y="27"
   inkscape:window-x="60"
   inkscape:cy="275.517"
   inkscape:cx="101.07149"
   inkscape:zoom="1.0289746"
   fit-margin-bottom="0"
   fit-margin-right="0"
   fit-margin-left="0"
   fit-margin-top="0"
   showgrid="false"
   id="namedview176"
   inkscape:window-height="1016"
   inkscape:window-width="1860"
   inkscape:pageshadow="2"
   inkscape:pageopacity="0"
   guidetolerance="10"
   gridtolerance="10"
   objecttolerance="10"
   borderopacity="1"
   inkscape:document-rotation="0"
   bordercolor="#666666"
   pagecolor="#ffffff" />
<g
   transform="scale(0.23229057)"
   style="fill:#ffffff"
   id="XMLID_13_">
	
		<linearGradient
   gradientTransform="matrix(1,0,0,-1,0,554)"
   y2="549.72021"
   x2="275.517"
   y1="4.5714002"
   x1="275.517"
   gradientUnits="userSpaceOnUse"
   id="XMLID_2_">
		<stop
   id="stop114"
   style="stop-color:#E09B3D"
   offset="0" />
		<stop
   id="stop116"
   style="stop-color:#C74C4D"
   offset="0.3" />
		<stop
   id="stop118"
   style="stop-color:#C21975"
   offset="0.6" />
		<stop
   id="stop120"
   style="stop-color:#7024C4"
   offset="1" />
	</linearGradient>
	<path
   inkscape:connector-curvature="0"
   d="M 386.878,0 H 164.156 C 73.64,0 0,73.64 0,164.156 v 222.722 c 0,90.516 73.64,164.156 164.156,164.156 h 222.722 c 90.516,0 164.156,-73.64 164.156,-164.156 V 164.156 C 551.033,73.64 477.393,0 386.878,0 Z M 495.6,386.878 C 495.6,446.923 446.923,495.6 386.878,495.6 H 164.156 C 104.111,495.6 55.434,446.923 55.434,386.878 V 164.156 c 0,-60.046 48.677,-108.722 108.722,-108.722 h 222.722 c 60.045,0 108.722,48.676 108.722,108.722 z"
   style="fill:#ffffff"
   id="XMLID_17_" />
	
		<linearGradient
   gradientTransform="matrix(1,0,0,-1,0,554)"
   y2="549.72021"
   x2="275.517"
   y1="4.5714002"
   x1="275.517"
   gradientUnits="userSpaceOnUse"
   id="XMLID_3_">
		<stop
   id="stop124"
   style="stop-color:#E09B3D"
   offset="0" />
		<stop
   id="stop126"
   style="stop-color:#C74C4D"
   offset="0.3" />
		<stop
   id="stop128"
   style="stop-color:#C21975"
   offset="0.6" />
		<stop
   id="stop130"
   style="stop-color:#7024C4"
   offset="1" />
	</linearGradient>
	<path
   inkscape:connector-curvature="0"
   d="M 275.517,133 C 196.933,133 133,196.933 133,275.516 c 0,78.583 63.933,142.517 142.517,142.517 78.584,0 142.517,-63.933 142.517,-142.517 C 418.034,196.932 354.101,133 275.517,133 Z m 0,229.6 c -48.095,0 -87.083,-38.988 -87.083,-87.083 0,-48.095 38.989,-87.083 87.083,-87.083 48.095,0 87.083,38.988 87.083,87.083 0,48.094 -38.989,87.083 -87.083,87.083 z"
   style="fill:#ffffff"
   id="XMLID_81_" />
	
		<linearGradient
   gradientTransform="matrix(1,0,0,-1,0,554)"
   y2="549.72021"
   x2="418.306"
   y1="4.5714002"
   x1="418.306"
   gradientUnits="userSpaceOnUse"
   id="XMLID_4_">
		<stop
   id="stop134"
   style="stop-color:#E09B3D"
   offset="0" />
		<stop
   id="stop136"
   style="stop-color:#C74C4D"
   offset="0.3" />
		<stop
   id="stop138"
   style="stop-color:#C21975"
   offset="0.6" />
		<stop
   id="stop140"
   style="stop-color:#7024C4"
   offset="1" />
	</linearGradient>
	<circle
   r="34.148998"
   cy="134.07201"
   cx="418.306"
   style="fill:#ffffff"
   id="XMLID_83_" />
</g>
<g
   transform="scale(0.23229057)"
   style="fill:#ffffff"
   id="g145">
</g>
<g
   transform="scale(0.23229057)"
   style="fill:#ffffff"
   id="g147">
</g>
<g
   transform="scale(0.23229057)"
   style="fill:#ffffff"
   id="g149">
</g>
<g
   transform="scale(0.23229057)"
   style="fill:#ffffff"
   id="g151">
</g>
<g
   transform="scale(0.23229057)"
   style="fill:#ffffff"
   id="g153">
</g>
<g
   transform="scale(0.23229057)"
   style="fill:#ffffff"
   id="g155">
</g>
<g
   transform="scale(0.23229057)"
   style="fill:#ffffff"
   id="g157">
</g>
<g
   transform="scale(0.23229057)"
   style="fill:#ffffff"
   id="g159">
</g>
<g
   transform="scale(0.23229057)"
   style="fill:#ffffff"
   id="g161">
</g>
<g
   transform="scale(0.23229057)"
   style="fill:#ffffff"
   id="g163">
</g>
<g
   transform="scale(0.23229057)"
   style="fill:#ffffff"
   id="g165">
</g>
<g
   transform="scale(0.23229057)"
   style="fill:#ffffff"
   id="g167">
</g>
<g
   transform="scale(0.23229057)"
   style="fill:#ffffff"
   id="g169">
</g>
<g
   transform="scale(0.23229057)"
   style="fill:#ffffff"
   id="g171">
</g>
<g
   transform="scale(0.23229057)"
   style="fill:#ffffff"
   id="g173">
</g>
</svg>