<?xml version="1.0" encoding="UTF-8" standalone="no"?>
<svg
   xmlns:dc="http://purl.org/dc/elements/1.1/"
   xmlns:cc="http://creativecommons.org/ns#"
   xmlns:rdf="http://www.w3.org/1999/02/22-rdf-syntax-ns#"
   xmlns:svg="http://www.w3.org/2000/svg"
   xmlns="http://www.w3.org/2000/svg"
   xmlns:sodipodi="http://sodipodi.sourceforge.net/DTD/sodipodi-0.dtd"
   xmlns:inkscape="http://www.inkscape.org/namespaces/inkscape"
   viewBox="0 0 128 128"
   version="1.1"
   id="svg15"
   sodipodi:docname="telegram.svg"
   width="128"
   height="128"
   inkscape:version="0.92.5 (2060ec1f9f, 2020-04-08)">
  <metadata
     id="metadata19">
    <rdf:RDF>
      <cc:Work
         rdf:about="">
        <dc:format>image/svg+xml</dc:format>
        <dc:type
           rdf:resource="http://purl.org/dc/dcmitype/StillImage" />
        <dc:title></dc:title>
      </cc:Work>
    </rdf:RDF>
  </metadata>
  <sodipodi:namedview
     pagecolor="#ffffff"
     bordercolor="#666666"
     borderopacity="1"
     objecttolerance="10"
     gridtolerance="10"
     guidetolerance="10"
     inkscape:pageopacity="0"
     inkscape:pageshadow="2"
     inkscape:window-width="1860"
     inkscape:window-height="1016"
     id="namedview17"
     showgrid="false"
     fit-margin-top="0"
     fit-margin-left="0"
     fit-margin-right="0"
     fit-margin-bottom="0"
     inkscape:zoom="2.7812867"
     inkscape:cx="57.373656"
     inkscape:cy="41.546789"
     inkscape:window-x="60"
     inkscape:window-y="27"
     inkscape:window-maximized="1"
     inkscape:current-layer="svg15" />
  <defs
     id="defs7">
    <linearGradient
       id="A"
       x1="46.136002"
       x2="28.836"
       y1="11.536"
       y2="51.900002"
       gradientUnits="userSpaceOnUse"
       gradientTransform="matrix(3.468208,0,0,3.468208,0,-9.9925835e-6)">
      <stop
         stop-color="#37aee2"
         offset="0"
         id="stop2" />
      <stop
         stop-color="#1e96c8"
         offset="1"
         id="stop4" />
    </linearGradient>
  </defs>
  <path
     style="fill:#ffffff;stroke-width:3.27233052"
     inkscape:connector-curvature="0"
     id="path11"
     d="m 7.847354,57.173803 76.2453,-31.414371 c 7.526361,-3.27233 33.050536,-13.743789 33.050536,-13.743789 0,0 11.78039,-4.5812623 10.7987,6.544662 -0.32724,4.581262 -2.9451,20.615684 -5.56296,37.959034 l -8.18083,51.375591 c 0,0 -0.65447,7.52636 -6.21743,8.83529 -5.56296,1.30893 -14.725497,-4.58126 -16.361655,-5.8902 C 90.310086,109.85833 67.076536,95.132848 58.568477,87.933715 56.277842,85.970312 53.659981,82.043515 58.89571,77.462253 70.676101,66.663568 84.747118,53.247006 93.255173,44.738947 97.18197,40.81215 101.10877,31.649627 84.747118,42.775554 L 38.60726,73.862688 c 0,0 -5.235728,3.272333 -15.05272,0.327233 C 13.737548,71.24483 2.2843921,67.318033 2.2843921,67.318033 c 0,0 -7.8535941,-4.908494 5.5629619,-10.14423 z" />
</svg>
